<svg width="208" height="250" viewBox="0 0 208 250" fill="none" xmlns="http://www.w3.org/2000/svg">
<path d="M0 125C0 55.9644 55.9644 0 125 0H208V146C208 203.438 161.438 250 104 250V250C46.5624 250 0 203.438 0 146V125Z" fill="#FFDB70"/>
<path d="M33.6524 180.18C32.6258 180.18 31.8191 179.887 31.2324 179.3C30.6458 178.86 30.6458 178.493 31.2324 178.2C34.4591 177.613 37.2458 176.44 39.5924 174.68C41.9391 172.773 43.8458 170.427 45.3124 167.64C48.3924 162.507 51.3991 157.373 54.3324 152.24C57.2658 146.96 60.1258 141.68 62.9124 136.4L84.0324 97.46C87.4058 91.4467 90.3391 85.6533 92.8324 80.08C95.4724 74.5067 97.5258 70.4733 98.9924 67.98C100.019 66.0733 101.779 64.3867 104.272 62.92C106.912 61.3067 109.479 60.06 111.972 59.18C111.092 59.18 110.212 59.18 109.332 59.18C108.452 59.0333 107.499 58.96 106.472 58.96C101.926 58.96 96.9391 59.2533 91.5124 59.84C86.2324 60.28 81.0258 61.0133 75.8924 62.04C70.9058 63.0667 66.5058 64.46 62.6924 66.22C58.8791 67.98 56.3124 70.1067 54.9924 72.6C54.4058 73.92 53.8924 75.24 53.4524 76.56C53.0124 77.88 52.7924 79.2 52.7924 80.52C52.7924 83.8933 53.9658 86.3133 56.3124 87.78C56.4591 87.78 56.5324 87.9267 56.5324 88.22C56.5324 88.5133 56.2391 88.8067 55.6524 89.1C55.2124 89.3933 54.7724 89.4667 54.3324 89.32C53.0124 88.5867 51.3991 86.8267 49.4924 84.04C47.5858 81.1067 46.4124 78.6867 45.9724 76.78C45.5324 75.02 45.3124 73.4067 45.3124 71.94C45.3124 68.1267 46.5591 65.1933 49.0524 63.14C51.5458 60.94 54.6991 59.4 58.5124 58.52C62.3258 57.4933 66.2124 56.9067 70.1724 56.76C74.2791 56.4667 77.8724 56.32 80.9524 56.32C85.6458 56.32 91.2191 56.32 97.6724 56.32C104.126 56.1733 110.066 56.1 115.492 56.1C116.812 56.1 118.279 56.1 119.892 56.1C121.506 55.9533 123.192 55.88 124.952 55.88C128.912 55.88 133.019 56.1 137.272 56.54C141.526 56.98 145.412 57.9333 148.932 59.4C152.452 60.8667 155.166 63.14 157.072 66.22C158.979 69.4467 159.932 72.9667 159.932 76.78C159.932 80.4467 159.199 84.1133 157.732 87.78C156.266 91.4467 154.506 94.6 152.452 97.24C151.132 98.8533 149.592 100.467 147.832 102.08C146.072 103.693 144.092 105.233 141.892 106.7C139.692 108.167 137.272 109.56 134.632 110.88C132.139 112.053 129.132 113.007 125.612 113.74C125.466 113.74 125.319 113.96 125.172 114.4C125.172 114.84 125.319 115.06 125.612 115.06C126.346 115.207 127.592 115.427 129.352 115.72C131.259 115.867 132.946 116.087 134.412 116.38C139.546 117.407 143.799 119.607 147.172 122.98C150.692 126.207 152.452 130.607 152.452 136.18C152.452 142.487 150.766 148.28 147.392 153.56C144.166 158.84 139.986 163.387 134.852 167.2C129.719 170.867 124.366 173.727 118.792 175.78C111.752 178.42 103.686 179.74 94.5924 179.74C89.1658 179.74 83.5191 179.227 77.6524 178.2C71.7858 177.173 66.4324 175.413 61.5924 172.92C60.5658 172.333 59.5391 171.893 58.5124 171.6C57.4858 171.16 56.3858 170.94 55.2124 170.94C53.1591 170.94 50.9591 171.527 48.6124 172.7C47.1458 173.287 45.2391 174.387 42.8924 176C40.5458 177.613 37.9058 178.933 34.9724 179.96C34.6791 180.107 34.2391 180.18 33.6524 180.18ZM87.5524 176.66C91.3658 176.66 95.1791 176.293 98.9924 175.56C102.806 174.68 106.252 173.653 109.332 172.48C114.759 170.427 119.746 167.567 124.292 163.9C128.839 160.087 132.506 155.613 135.292 150.48C138.226 145.2 139.692 139.333 139.692 132.88C139.692 128.627 138.592 125.4 136.392 123.2C134.192 120.853 131.406 119.24 128.032 118.36C124.659 117.48 121.139 117.04 117.472 117.04C114.686 117.04 112.046 117.187 109.552 117.48C107.059 117.773 104.786 118.14 102.732 118.58C98.6258 119.313 94.9591 120.12 91.7324 121C91.1458 120.707 91.2191 120.193 91.9524 119.46C92.6858 118.58 93.6391 117.627 94.8124 116.6C96.1324 115.573 97.1591 114.767 97.8924 114.18C98.1858 113.887 98.7724 113.447 99.6524 112.86C100.679 112.127 101.486 111.76 102.072 111.76C109.259 111.76 115.639 111.32 121.212 110.44C126.932 109.56 131.846 107.433 135.952 104.06C140.059 100.54 143.432 95.1133 146.072 87.78C147.392 83.9667 148.052 80.2267 148.052 76.56C148.052 72.3067 147.026 68.64 144.972 65.56C142.919 62.3333 139.619 60.4267 135.072 59.84C134.486 59.6933 133.826 59.62 133.092 59.62C132.359 59.62 131.626 59.62 130.892 59.62C128.106 59.62 125.026 59.9867 121.652 60.72C118.426 61.4533 116.006 62.8467 114.392 64.9C110.726 69.74 107.206 75.24 103.832 81.4C100.459 87.4133 97.2324 93.5733 94.1524 99.88C91.0724 106.04 88.1391 111.833 85.3524 117.26C81.9791 123.86 78.5324 130.533 75.0124 137.28C71.4924 144.027 68.0458 150.847 64.6724 157.74C63.7924 159.5 63.3524 161.187 63.3524 162.8C63.3524 165.733 65.1858 168.593 68.8524 171.38C71.3458 173.287 74.2058 174.68 77.4324 175.56C80.8058 176.293 84.1791 176.66 87.5524 176.66Z" fill="#1E1E1E"/>
</svg>
